<?xml version="1.0" encoding="UTF-8"?>
<svg width="10px" height="12px" viewBox="0 0 10 12" version="1.1" xmlns="http://www.w3.org/2000/svg" xmlns:xlink="http://www.w3.org/1999/xlink">
    <!-- Generator: Sketch 52.6 (67491) - http://www.bohemiancoding.com/sketch -->
    <title>bold</title>
    <desc>Created with Sketch.</desc>
    <g id="WP-Watermark" stroke="none" stroke-width="1" fill="none" fill-rule="evenodd">
        <g id="Account-and-Configure" transform="translate(-925.000000, -1322.000000)">
            <g id="Group-2" transform="translate(902.000000, 1310.000000)">
                <g id="bold" transform="translate(12.000000, 3.000000)">
                    <rect id="Rectangle-4-Copy-2" x="0" y="0" width="32" height="32" rx="4"></rect>
                    <path d="M20.9211268,17.9239437 C20.9211268,18.4422561 20.8140856,18.8929558 20.6,19.2760563 C20.3859144,19.6591568 20.0929596,19.9774635 19.7211268,20.2309859 C19.3492939,20.4845083 18.9154954,20.6760557 18.4197183,20.8056338 C17.9239412,20.9352119 17.4000028,21 16.8478873,21 L11,21 L11,9 L17.6760563,9 C18.0929598,9 18.4704208,9.09013994 18.8084507,9.27042254 C19.1464806,9.45070513 19.4338016,9.68450561 19.6704225,9.97183099 C19.9070434,10.2591564 20.0901402,10.5859137 20.2197183,10.9521127 C20.3492964,11.3183117 20.4140845,11.6929558 20.4140845,12.0760563 C20.4140845,12.6507071 20.270424,13.1915468 19.9830986,13.6985915 C19.6957732,14.2056363 19.2647916,14.5887311 18.6901408,14.8478873 C19.3774682,15.0507052 19.9211248,15.411265 20.3211268,15.9295775 C20.7211288,16.4478899 20.9211268,17.112672 20.9211268,17.9239437 Z M18.0985915,17.3661972 C18.0985915,16.9943643 17.9915504,16.6788745 17.7774648,16.4197183 C17.5633792,16.1605621 17.2929594,16.0309859 16.9661972,16.0309859 L13.771831,16.0309859 L13.771831,18.6507042 L16.8478873,18.6507042 C17.2084525,18.6507042 17.5070411,18.5323955 17.743662,18.2957746 C17.9802829,18.0591537 18.0985915,17.7492977 18.0985915,17.3661972 Z M13.771831,11.3661972 L13.771831,13.8507042 L16.4929577,13.8507042 C16.7971846,13.8507042 17.0676045,13.7492968 17.3042254,13.5464789 C17.5408463,13.343661 17.6591549,13.0281712 17.6591549,12.6 C17.6591549,12.2056318 17.5549306,11.9014095 17.3464789,11.6873239 C17.1380271,11.4732384 16.8873254,11.3661972 16.5943662,11.3661972 L13.771831,11.3661972 Z" id="B-Copy-3" fill="#161616"></path>
                </g>
            </g>
        </g>
    </g>
</svg>