<?xml version="1.0" encoding="UTF-8"?>
<svg width="13px" height="14px" viewBox="0 0 13 14" version="1.1" xmlns="http://www.w3.org/2000/svg" xmlns:xlink="http://www.w3.org/1999/xlink">
    <!-- Generator: Sketch 52.6 (67491) - http://www.bohemiancoding.com/sketch -->
    <title>underline</title>
    <desc>Created with Sketch.</desc>
    <g id="WP-Watermark" stroke="none" stroke-width="1" fill="none" fill-rule="evenodd">
        <g id="Account-and-Configure" transform="translate(-996.000000, -1322.000000)">
            <g id="Group-2" transform="translate(902.000000, 1310.000000)">
                <g id="underline" transform="translate(84.000000, 3.000000)">
                    <rect id="Rectangle-4-Copy-4" x="0" y="0" width="32" height="32" rx="4"></rect>
                    <path d="M16.1802654,19.4927382 C16.864338,19.4927382 17.432551,19.3603391 17.8849216,19.0955368 C18.3372922,18.8307345 18.6986315,18.485945 18.9689505,18.061158 C19.2392695,17.636371 19.4295933,17.1509074 19.5399276,16.6047527 C19.6502619,16.058598 19.7054282,15.5041765 19.7054282,14.9414717 L19.7054282,9 L21.1949337,9 L21.1949337,14.9414717 C21.1949337,15.7358785 21.1039092,16.4888987 20.9218577,17.2005549 C20.7398061,17.912211 20.4501829,18.5383487 20.0529795,19.0789867 C19.6557761,19.6196247 19.139971,20.0471637 18.5055489,20.3616164 C17.8711267,20.6760691 17.1015566,20.8332931 16.1968154,20.8332931 C15.258974,20.8332931 14.4700957,20.6677942 13.8301568,20.3367913 C13.190218,20.0057885 12.6744129,19.5672162 12.2827262,19.0210615 C11.8910395,18.4749068 11.6096912,17.8460108 11.4386731,17.1343546 C11.267655,16.4226985 11.1821472,15.6917448 11.1821472,14.9414717 L11.1821472,9 L12.6716526,9 L12.6716526,14.9414717 C12.6716526,15.5262434 12.7295772,16.0916981 12.8454282,16.6378528 C12.9612792,17.1840076 13.1543613,17.6667128 13.4246803,18.0859831 C13.6949993,18.5052534 14.0535804,18.8445262 14.5004343,19.1038118 C14.9472881,19.3630974 15.5072262,19.4927382 16.1802654,19.4927382 Z M10,22.0036188 L22.4125452,22.0036188 L22.4125452,23 L10,23 L10,22.0036188 Z" id="U-Copy-3" fill="#161616"></path>
                </g>
            </g>
        </g>
    </g>
</svg>